<?xml version="1.0" encoding="utf-8"?>
<!-- Generator: Adobe Illustrator 15.0.0, SVG Export Plug-In . SVG Version: 6.00 Build 0)  -->
<!DOCTYPE svg PUBLIC "-//W3C//DTD SVG 1.1//EN" "http://www.w3.org/Graphics/SVG/1.1/DTD/svg11.dtd">
<svg version="1.1" id="Layer_1" xmlns="http://www.w3.org/2000/svg" xmlns:xlink="http://www.w3.org/1999/xlink" x="0px" y="0px"
	 width="595.279px" height="531px" viewBox="0 155.445 595.279 531" enable-background="new 0 155.445 595.279 531"
	 xml:space="preserve">
<g>
	<g>
		<path fill="#80C461" d="M297.64,161.629C133.28,161.629,0,294.909,0,459.27c0,86.395,36.876,164.36,95.877,218.884h403.525
			c59.002-54.523,95.877-132.489,95.877-218.884C595.28,294.909,462,161.629,297.64,161.629z M381.401,677.1
			c0,0-2.897,1.317-6.585,0.791c-3.688-0.264-7.111-1.844-7.111-1.844s-3.161,0.526-7.639-0.527
			c-4.479-1.316-27.921-8.165-27.921-8.165H211.509c-1.58,0.79-3.424,1.58-5.531,2.107c-8.956,2.37-17.385,6.848-26.867,7.111
			s-15.804,0.526-17.384-1.844c0,0-3.951-0.79-2.897-4.741c0.79-3.951,3.951-8.692,6.321-10.536
			c1.317-1.054,4.741-1.316,8.692-1.844c-9.219-2.37-19.491-6.321-31.871-13.696c-24.232-14.224-41.881-42.671-41.881-42.671
			l1.054-0.526l-1.054-0.791l0.527-0.526l-1.58-0.526c0,0,6.058-3.425,10.799-2.897c5.005,0.526,7.902,1.844,20.281,13.17
			c12.644,11.589,20.546,16.33,38.457,25.812c8.429,4.478,16.066,5.795,22.125,6.321c-0.79-2.106-1.317-4.214-1.58-5.268
			c-1.054-3.688-4.741-10.009-6.585-12.38c-1.844-2.37-4.478-23.969-4.741-27.92s3.688-12.906,4.478-14.75
			s3.688-13.434,10.272-25.55s21.335-8.956,21.335-8.956s2.107-2.106,3.688-5.794c1.581-3.425,1.845-13.697,0-20.019
			c-2.106-6.321-1.844-21.072-1.58-31.871c0.264-10.536,9.219-40.037,9.219-40.037s-0.263-4.741-0.79-9.745
			c-0.79-5.005,5.795-23.18,8.166-32.662c2.37-9.482,9.481-13.96,11.853-18.438c2.37-4.478,1.844-25.55,1.844-25.55
			c0.264-5.268-0.264-7.639-0.79-9.219c-0.79-0.527-1.054-1.054-1.054-1.054s-0.527,2.371-0.527,4.478c0,2.107,0,10.536-0.79,13.96
			c-0.526,3.424-4.214,7.639-7.639,9.219c-3.16,1.581-25.812-16.331-27.656-18.701s-7.112-8.429-4.741-15.014
			c2.37-6.585,4.214-6.848,6.321-10.799c2.371-3.951,6.321-17.384,8.165-20.809c1.844-3.424,2.371-4.741,4.741-5.795
			c2.635-1.053,7.639-2.37,11.854-6.058c3.951-3.688,10.272-16.594,20.545-24.496c10.272-7.902,23.442-10.009,25.022-10.536
			c1.581-0.527,1.581-1.581,1.581-1.581c1.844-3.951,14.75-3.951,22.652-3.424c8.165,0.527,10.271,2.371,10.271,2.371
			s6.322,2.107,8.956,3.161s2.107,3.424,2.634,7.902c0.527,4.214,0,11.326-1.054,16.331c-0.79,5.268,0.79,9.219,1.581,12.907
			c0.79,3.688,1.053,7.112-0.527,7.902c-1.317,0.79-3.951-0.263-7.111-5.268c-3.161-5.004-4.741-15.541-4.741-15.277
			c0,0.527,1.054,4.741,0.79,8.165c-0.264,3.424,1.58,8.692,1.844,10.009s1.58,2.634,1.58,2.634
			c1.317,1.054,4.215,5.532,4.478,6.849c0.264,1.317,1.844,5.004,2.897,6.321c1.054,1.317,2.897,4.215,4.479,8.956
			c1.58,4.741,2.897,11.326,3.424,14.75c0.526,3.688-0.526,5.268-2.634,6.322c-2.107,1.317-5.531,0-5.531,0
			c-1.054,2.107-3.688,5.004-9.22,8.429c-1.316,0.79-2.634,1.317-4.214,1.844l1.844,13.697l9.746,7.111
			c0,0,7.901,8.166,17.911,20.809c10.009,12.644,11.325,41.09,10.799,65.323c-0.526,19.755-7.902,32.925-10.799,36.875
			c-0.527,1.054-0.527,2.107-0.264,2.371c1.054,1.58,1.316,4.214,2.107,6.585c1.053,2.897,1.316,35.559,1.316,35.559
			c2.371,2.371,12.644,14.75,15.014,18.965c2.371,4.214,3.425,15.804,2.371,27.92c-0.79,8.429-11.59,27.921-18.175,37.14
			l0.526,11.326c2.371,1.58,6.849,3.951,11.326,4.214c6.585,0.264,19.755,0.527,23.706,6.059c4.215,5.268,6.585,8.692,6.321,12.116
			C385.878,677.627,381.401,677.1,381.401,677.1z"/>
	</g>
</g>
<path fill="#80C461" d="M338.73,456.899c6.322,0.263,11.59,3.95,11.59,3.95c-3.688-3.424-11.59-4.478-11.59-4.478s-0.79,0-1.58,0
	c0-0.264,0-0.79-0.264-1.054c0.527-0.264,1.844-1.054,2.897-1.58c9.482-3.424,17.647-3.951,17.647-3.951
	c-3.16-0.264-11.853,1.844-16.33,3.161c1.316-0.79,2.634-1.844,3.688-2.634c2.897-2.635,5.531-7.902,5.531-7.902
	s-2.37,4.214-5.268,7.111c-1.317,1.317-3.425,2.635-5.269,3.688c-1.054,0.264-1.58,0.527-1.58,0.527s-1.054,0.264-1.844,0.79
	c-0.264-0.264,0-0.526,0-0.526c0-0.791-1.054-1.581-1.844-2.107l0,0h0.264c0,0,7.901-3.688,10.009-7.375
	c0,0-3.161,3.95-10.272,7.111h-0.264c-0.79-0.526-2.107-1.054-2.107-1.58c0-0.527-0.79-2.897-1.58-3.688
	c-0.79-0.527-2.107-4.741-2.634-6.322c-0.527-1.58-2.371-1.844-3.425-2.37c-1.053-0.526-2.896-2.634-3.16-3.424
	c0-0.527-1.844-1.054-2.371-1.054l0,0c0.527-0.79,1.317-1.317,1.844-1.581c-0.263,0.264-0.79,0.527-1.316,0.791
	c-0.79,0.79-1.317,0.79-1.317,0.79c0.264-0.79,2.107-2.107,2.107-2.107c-0.527,0.264-1.317,1.054-1.844,1.58
	c-0.527,0.527-1.054,0.264-1.054,0.264c0.526-1.317,2.897-2.634,2.897-2.634c-1.317,0.526-3.161,2.107-3.424,2.634l0,0
	c0-0.264,0-0.264,0-0.526c1.316-2.107,2.896-3.161,2.896-3.161c-1.053,0.526-2.37,2.107-2.896,2.897c0-0.264,0-0.79,0-1.317
	c0.263-0.526,0.526-0.79,0.526-0.79c-0.264,0.264-0.526,0.526-0.526,0.79c-0.264-3.16-0.527-9.219-1.317-13.434
	c-0.79-5.794-2.634-14.486-5.795-11.589s-10.272,13.434-13.433,26.604l-3.951,0.526l0.264-0.79l-1.317,0.79l-6.059,2.634
	c0,0-4.478-10.536-8.955-16.33c-4.478-5.532-9.746-7.376-12.644-3.161c-2.897,3.951-4.478,16.067-3.688,25.286
	s3.425,17.647,4.478,19.229c0,0,0.264,5.531,2.897,12.643c2.635,7.112,8.166,15.277,10.536,19.229
	c2.371,3.951,2.107,6.848,1.581,8.165c-0.527,1.317-10.536,17.911-12.644,22.652s-5.531,17.647-5.531,18.175
	c0,0.526-1.317,1.844-3.425,4.478c0,0-26.603,33.715-29.236,49.519l-2.371,15.804c0,0-5.005,18.175-3.951,31.872
	c1.054,13.696,1.581,17.647,1.581,17.647s-8.166,1.054-10.01,8.692c-1.844,8.429,6.322,10.799,15.277,10.799
	c8.692,0,101.672-2.897,101.672-2.897s1.844,0.264,1.58-0.264c2.634-0.526,8.692-1.844,10.009-2.896
	c1.844-1.581,2.634-4.479,1.317-6.059c-1.317-1.58-6.585-3.688-9.219-3.951l-2.634-0.264c0,0-2.371-1.844-3.425-6.585
	s-3.688-19.491-3.951-21.861c-0.263-2.635-1.316-9.482-1.316-10.8c0-1.58,1.054-11.326,1.316-12.906
	c0.264-2.897,0.527-13.697,1.054-18.701c0,0-1.054-2.371,1.844-8.166c0.264-0.526,0.527-1.053,0.79-1.58
	c1.054-2.107,1.844-3.951,2.371-5.531c0,0,0.526,1.316,0.79,2.107c0-0.791,0-2.107,0-2.635c-0.264-0.526,0-0.263,0-0.263
	s0.79,2.37,1.317,2.634c0,0-1.054-2.371-0.79-3.424c0.263-1.054,0.526-1.844,0.526-1.844s0,2.106,0.264,2.634
	c0,0,0.526-2.897,0.263-4.215c0,0,0.791,1.054,1.317,1.581c0-0.527,0.264-2.897,0.526-3.951c0.264-1.054,0.527-1.317,0.527-1.317
	l0.526,1.054c0,0-0.263-2.37,0-3.161c0.264-0.79,1.581-6.058,1.844-7.638c0.264-1.581,1.317-11.854-2.37-19.229
	s-12.644-25.813-13.96-30.555c-1.581-4.741-2.897-8.955-1.581-13.433c0.79-2.897,2.635-7.375,4.479-10.536l0,0
	c0.79-1.317,4.741-6.059,6.585-7.639c1.844-1.317,2.634-1.317,5.004-5.531c2.634-4.215,0-9.746,0-9.746l0.264-0.526
	c1.317-0.527,1.317-2.634,1.317-2.634s0,0,0-0.264c1.316,1.054,3.16,2.107,4.478,2.897c2.107,1.316,5.004,2.37,5.004,2.37
	s-2.896-1.316-4.478-2.106c-1.054-0.527-3.16-2.107-4.741-3.161l0,0c0.79-0.264,0.527-1.844,0.264-2.107c0,0,0,0,0-0.264
	C337.413,456.899,337.94,456.899,338.73,456.899 M336.886,455.055L336.886,455.055c0.264-0.263,0.264-0.263,0.527-0.263
	C337.15,454.792,336.886,454.792,336.886,455.055"/>
</svg>
