<?xml version="1.0" encoding="utf-8"?>
<!-- Generator: Adobe Illustrator 15.0.0, SVG Export Plug-In . SVG Version: 6.00 Build 0)  -->
<!DOCTYPE svg PUBLIC "-//W3C//DTD SVG 1.1//EN" "http://www.w3.org/Graphics/SVG/1.1/DTD/svg11.dtd">
<svg version="1.1" id="Layer_1" xmlns="http://www.w3.org/2000/svg" xmlns:xlink="http://www.w3.org/1999/xlink" x="0px" y="0px"
	 width="822.047px" height="733.281px" viewBox="-113.384 -101.142 822.047 733.281"
	 enable-background="new -113.384 -101.142 822.047 733.281" xml:space="preserve">
<g>
	<g>
		<g>
			<g>
				<path fill="#80C462" d="M133.482,254.829H78.63L78.111,92.204c-0.353-8.266-6.368-12.401-18.049-12.401h-169.747V23.227H66.881
					c44.397,0,66.602,21.416,66.602,64.237V254.829z M-54.833,254.829h-54.852V141.091h54.852V254.829z"/>
				<path fill="#80C462" d="M387.354,190.889c0,42.629-22.204,63.939-66.604,63.939H144.187v-55.981h169.751
					c12.028,0,18.045-4.725,18.045-14.181V92.21c0-8.27-6.021-12.408-18.058-12.408H199.039v71.896h-54.851V23.227H320.75
					c44.402,0,66.605,21.416,66.605,64.237v103.425H387.354z"/>
				<path fill="#80C462" d="M453.432,151.698h-54.847V23.227h54.847V151.698z"/>
				<path fill="#80C462" d="M707.827,254.829H652.98l-0.523-162.625c-0.353-8.266-6.375-12.401-18.06-12.401H528.651v175.026
					h-63.988V23.227h176.56c44.403,0,66.604,21.416,66.604,64.237V254.829L707.827,254.829z"/>
			</g>
		</g>
	</g>
	<g>
		<g>
			<path fill="#464450" d="M105.39,452.67c9.743,0,16.126-0.982,19.136-2.945c4.256-2.949,6.383-9.229,6.383-18.857
				c0-12.18-8.15-18.27-24.457-18.27H-1.189v-46.262h105.518c7.973,0,13.73-1.273,17.276-3.832
				c4.257-3.137,6.286-8.838,6.111-17.088c-0.178-11.787-8.331-17.68-24.45-17.68H-44.252v-51.859
				c4.785-0.191,10.9-0.297,18.342-0.297h38.804c4.072,0,16.393,0,36.947,0c10.983,0,17.545,0,19.672,0
				c38.625,0,63.521,0.785,74.684,2.363c12.404,1.967,22.769,7.08,31.102,15.34c5.312,5.316,8.676,10.23,10.098,14.752
				c1.594,5.312,2.392,16.229,2.392,32.75v4.129c0,6.688-0.268,11.902-0.798,15.641c-1.241,8.848-5.85,15.539-13.823,20.057
				c-8.147,3.35-14.618,5.711-19.4,7.082l-2.656,0.887c-0.359,0-0.534,0.1-0.534,0.295c0,0.398,1.683,0.887,5.054,1.479
				c7.794,1.572,14.258,3.736,19.399,6.488c6.909,4.133,11.518,9.639,13.819,16.521c1.769,5.113,2.659,12.885,2.659,23.311
				c0,8.658-0.174,15.734-0.535,21.246c-1.24,13.174-5.224,23.303-11.956,30.385c-7.796,7.865-18.786,12.785-32.96,14.75
				c-13.113,1.973-38.629,2.951-76.545,2.951H-44.252v-53.334H105.39V452.67z"/>
			<path fill="#464450" d="M411.05,389.613c0,0.396,0.707,0.789,2.13,1.178c14.704,3.342,24.893,10.123,30.565,20.334
				c3.895,7.068,5.852,16.012,5.852,26.814c0,16.307-0.98,27.988-2.923,35.061c-1.599,5.893-4.968,11.594-10.106,17.09
				c-7.796,8.057-18.782,13.064-32.956,15.029c-11.878,1.768-37.919,2.652-78.145,2.652c-22.154,0-38.72-0.1-49.701-0.293
				c-22.321-0.787-38.271-3.338-47.848-7.664c-8.855-3.932-15.591-9.725-20.195-17.385c-4.25-7.072-6.377-21.807-6.377-44.197
				c0-10.801,2.03-19.744,6.113-26.816c5.662-10.605,15.855-17.479,30.568-20.625c1.056-0.191,1.593-0.588,1.593-1.178
				c0-0.783-0.537-1.471-1.593-2.062c-7.979-1.768-14.536-4.514-19.674-8.25c-11.345-8.252-17.008-21.219-17.008-38.898
				c0-7.85,0.354-14.438,1.058-19.742c1.418-11.783,5.32-21.111,11.699-27.988c7.439-8.254,18.514-13.455,33.227-15.619
				c11.692-1.77,37.649-2.652,77.879-2.652c40.218,0,66.267,0.883,78.137,2.652c13.819,2.164,24.896,7.369,33.223,15.619
				l0.265,0.588c4.426,5.504,7.531,10.609,9.303,15.322c2.303,6.877,3.462,17.486,3.462,31.82v4.125
				c0,9.627-2.043,17.779-6.114,24.459c-5.5,9.238-15.599,15.518-30.303,18.857C411.757,387.846,411.05,388.438,411.05,389.613z
				 M284.801,412.008c-6.204,0-11.787,2.061-16.743,6.186c-5.499,4.521-8.24,10.021-8.24,16.502c0,7.469,2.655,13.361,7.972,17.678
				c4.782,3.934,10.719,5.896,17.806,5.896h77.083c6.736,0,12.582-1.963,17.538-5.896c5.673-4.514,8.505-10.408,8.505-17.678
				c-0.172-6.48-3.102-11.98-8.766-16.502c-4.965-4.125-10.461-6.186-16.478-6.186H284.801z M363.742,369.285
				c5.673,0,11.117-2.016,16.351-6.043c5.222-4.025,7.924-9.084,8.104-15.172c0-7.076-2.752-12.674-8.24-16.801
				c-4.787-3.533-10.542-5.303-17.278-5.303h-74.421c-6.91,0-12.761,1.77-17.546,5.303c-5.492,4.127-8.153,9.725-7.968,16.801
				c0,6.289,2.74,11.488,8.234,15.613c4.961,3.736,10.456,5.602,16.479,5.602H363.742z"/>
		</g>
		<g>
			<g>
				<g>
					<g>
						<g>
							<g>
								<rect x="-109.685" y="450.842" fill="#80C462" width="51.629" height="53.812"/>
							</g>
						</g>
					</g>
				</g>
			</g>
		</g>
	</g>
</g>
</svg>
